<svg viewBox="0 0 1080 1080" fill="none" xmlns="http://www.w3.org/2000/svg">      <defs>  <filter id="filter" x="-20%" y="-20%" width="140%" height="140%" filterUnits="objectBoundingBox" primitiveUnits="userSpaceOnUse" color-interpolation-filters="linearRGB">    <feMorphology operator="dilate" radius="20 20" in="SourceAlpha" result="morphology"/>    <feFlood flood-color="#ffffff" flood-opacity="1" result="flood"/>    <feComposite in="flood" in2="morphology" operator="in" result="composite"/>    <feMerge result="merge">          <feMergeNode in="composite" result="mergeNode"/>      <feMergeNode in="SourceGraphic" result="mergeNode1"/>      </feMerge>  </filter></defs>      <g id="notion-avatar" filter="url(#filter)">        <g id="notion-avatar-face" fill="#ffffff">      <!--?xml version="1.0" encoding="UTF-8"?-->    <title>Face/ 7</title>    <g id="Face/-7" stroke="none" stroke-width="1" fill-rule="evenodd" stroke-linecap="round" stroke-linejoin="round">        <path d="M532,379 C664.54834,379 772,486.45166 772,619 C772,751.54834 764.54834,919 572,919 C415.13263,919 351.668898,801.612202 313.752775,718.980575 L313.322946,718.989282 L312,719 C267.81722,719 232,683.18278 232,639 C232,599.134956 261.158843,566.080325 299.312086,560.00055 C325.599297,455.979213 419.809919,379 532,379 Z M295.858895,624.545187 L304.141105,655.454813" id="Path" stroke="#000000" stroke-width="24"/>    </g>    </g><g id="notion-avatar-nose">      <!--?xml version="1.0" encoding="UTF-8"?-->    <title>Nose/ 3</title>    <g id="Nose/-3" stroke="none" stroke-width="1" fill="none" fill-rule="evenodd" stroke-linecap="round" stroke-linejoin="round">        <path d="M636.843465,595.910607 C654.994141,637.483681 663.279537,666.31686 661.699654,682.410144 C660.11977,698.503428 648.515798,703.474491 626.887739,697.323331" id="Line" stroke="#000000" stroke-width="16" transform="translate(644.388576, 647.892684) rotate(1.032339) translate(-644.388576, -647.892684) "/>    </g>    </g><g id="notion-avatar-mouth">      <!--?xml version="1.0" encoding="UTF-8"?-->    <title>Mouth/ 10</title>    <g id="Mouth/-10" stroke="none" stroke-width="1" fill="none" fill-rule="evenodd" stroke-linecap="round" stroke-linejoin="round">        <path d="M549,759 C576.33038,765.666667 599.663714,769 619,769 C638.336286,769 655.002953,765.666667 669,759 C656.33038,792.333333 632.997047,809 599,809 C565.002953,809 548.336286,792.333333 549,759 Z" id="Path" stroke="#000000" stroke-width="16"/>    </g>    </g><g id="notion-avatar-eyes">      <!--?xml version="1.0" encoding="UTF-8"?-->    <title>Eyes/ 9</title>    <g id="Eyes/-9" stroke="none" stroke-width="1" fill="none" fill-rule="evenodd">        <path d="M570,507 C575.854822,507 581.122051,511.025253 584.779642,517.440484 L578,531 L589.369946,531.000208 C589.781247,533.557105 590,536.237678 590,539 C590,556.673112 581.045695,571 570,571 C558.954305,571 550,556.673112 550,539 C550,521.326888 558.954305,507 570,507 Z M708,507 C713.854822,507 719.122051,511.025253 722.779642,517.440484 L716,531 L727.369946,531.000208 C727.781247,533.557105 728,536.237678 728,539 C728,556.673112 719.045695,571 708,571 C696.954305,571 688,556.673112 688,539 C688,521.326888 696.954305,507 708,507 Z" id="Combined-Shape" fill="#000000"/>    </g>    </g><g id="notion-avatar-eyebrows">      <!--?xml version="1.0" encoding="UTF-8"?-->    <title>Eyebrows/ 7</title>    <g id="Eyebrows/-7" stroke="none" stroke-width="1" fill="none" fill-rule="evenodd" stroke-linecap="round" stroke-linejoin="round">        <g id="Group" transform="translate(528.000000, 485.000000)" stroke="#000000" stroke-width="16">            <path d="M2,31 C13.6420073,23.1142473 23.8820073,17.5142473 32.72,14.2 C41.5579927,10.8857527 52.651326,8.48575274 66,7" id="Path" transform="translate(34.000000, 19.000000) rotate(12.000000) translate(-34.000000, -19.000000) "/>            <path d="M156,31 C167.642007,23.1142473 177.882007,17.5142473 186.72,14.2 C195.557993,10.8857527 206.651326,8.48575274 220,7" id="Path" transform="translate(188.000000, 19.000000) scale(-1, 1) rotate(12.000000) translate(-188.000000, -19.000000) "/>        </g>    </g>    </g><g id="notion-avatar-glasses">      <!--?xml version="1.0" encoding="UTF-8"?-->    <title>Glasses/ 10</title>    <g id="Glasses/-10" stroke="none" stroke-width="1" fill="none" fill-rule="evenodd">        <g id="Group" transform="translate(289.000000, 475.000000)" fill="#000000">            <rect id="Rectangle" x="201" y="0" width="300" height="23.4"/>            <path d="M329.571429,0 L370.642857,0 L370.642857,50.7333333 C363.797619,41.4888889 356.952381,36.8666667 350.107143,36.8666667 C343.261905,36.8666667 336.416667,41.4888889 329.571429,50.7333333 L329.571429,0 Z" id="Rectangle"/>            <path d="M209.035714,16.4666667 L226.635493,91.6470116 C228.329435,98.8829668 234.782715,104 242.214302,104 L295.809254,104 C302.413177,104 308.338607,99.9426587 310.726587,93.7856009 L340.714286,16.4666667 L340.714286,16.4666667 L209.035714,16.4666667 Z" id="Path" stroke="#000000" stroke-width="16" stroke-linecap="round" stroke-linejoin="round"/>            <path d="M359.5,16.4666667 L377.099778,91.6470116 C378.793721,98.8829668 385.247,104 392.678588,104 L446.273539,104 C452.877463,104 458.802893,99.9426587 461.190872,93.7856009 L491.178571,16.4666667 L491.178571,16.4666667 L359.5,16.4666667 Z" id="Path" stroke="#000000" stroke-width="16" stroke-linecap="round" stroke-linejoin="round" transform="translate(425.339286, 60.233333) scale(-1, 1) translate(-425.339286, -60.233333) "/>            <polygon id="Path" stroke="#000000" stroke-width="4" stroke-linecap="round" stroke-linejoin="round" points="201 2 4 66 0 75 201 22"/>        </g>    </g>    </g><g id="notion-avatar-hair">      <g id="Hairstyle/ 48"><path id="Path" fill-rule="evenodd" clip-rule="evenodd" d="M328.117 564.825L366 655C366 655 385.371 570.084 403 540C424.858 502.699 480 494 480 494C480 494 477.209 483.947 476 475C474.791 466.054 476 457 476 457L362 410L492 433C492 433 563.019 419.458 616 419C647.294 418.73 693 426 693 426C693 426 678 383 592 359C506 335 397 367 346 426C295 485 290 565 290 565L328.117 564.825Z" fill="black" stroke="black" stroke-width="12" stroke-linecap="round" stroke-linejoin="round"/></g>    </g><g id="notion-avatar-accessories">      <!--?xml version="1.0" encoding="UTF-8"?-->    <title>Accessories/ 0</title>    <g id="Accessories/-0" stroke="none" stroke-width="1" fill="none" fill-rule="evenodd"/>    </g><g id="notion-avatar-details">      <!--?xml version="1.0" encoding="UTF-8"?-->    <title>Details/ 0</title>    <g id="Details/-0" stroke="none" stroke-width="1" fill="none" fill-rule="evenodd"/>    </g><g id="notion-avatar-beard">      <!--?xml version="1.0" encoding="UTF-8"?-->    <title>Beard/ 0</title>    <g id="Beard/-0" stroke="none" stroke-width="1" fill="none" fill-rule="evenodd"/>    </g>      </g>      </svg>